<?xml version="1.0" encoding="utf-8"?>
<!-- Generator: Adobe Illustrator 27.8.1, SVG Export Plug-In . SVG Version: 6.00 Build 0)  -->
<svg version="1.1" id="Capa_1" xmlns="http://www.w3.org/2000/svg" xmlns:xlink="http://www.w3.org/1999/xlink" x="0px" y="0px"
	 viewBox="0 0 230 138" style="enable-background:new 0 0 230 138;" xml:space="preserve">
<style type="text/css">
	.st0{fill:#333333;}
	.st1{fill-rule:evenodd;clip-rule:evenodd;fill:#333333;}
</style>
<g id="electronica-negro_00000158751155190868291210000016132437521323079818_">
	<g>
		<g>
			<path class="st0" d="M191.35,120c0.14-0.04,0.28-0.08,0.42-0.13C191.8,119.98,191.4,120.13,191.35,120"/>
			<path class="st0" d="M191.35,120c0.14-0.04,0.28-0.08,0.42-0.13C191.8,119.98,191.4,120.13,191.35,120"/>
			<path class="st0" d="M82.07,70.1c-1.68-1.28-3.35-2.54-4.99-3.79c-0.36,0.3-0.68,0.61-1.03,0.87c-1.91,1.39-4.5,1.28-6.29-0.27
				c-1.31-1.13-2.04-2.58-2.23-4.29c-0.19-1.65,0.12-3.2,1.03-4.6c0.88-1.35,2.08-2.25,3.7-2.54c0.09-0.02,0.17-0.03,0.29-0.06
				c0.19-2.28,0.37-4.56,0.56-6.86c-0.1-0.03-0.17-0.07-0.26-0.09c-2.31-0.59-3.9-2.03-4.9-4.15c-0.53-1.13-0.8-2.34-0.87-3.59
				c-0.18-3.52,0.97-6.57,3.23-9.23c1.21-1.43,2.69-2.51,4.45-3.17c1.99-0.73,3.97-0.77,5.92,0.13c1.14,0.53,2.06,1.32,2.79,2.34
				c0.11,0.15,0.21,0.31,0.34,0.5c2.38-1.74,4.75-3.48,7.15-5.23c-0.05-0.13-0.09-0.26-0.14-0.38c-0.25-0.65-0.35-1.33-0.32-2.03
				c0.07-1.34,0.54-2.54,1.35-3.6c1.53-1.99,3.56-3.1,6.06-3.36c1.45-0.15,2.83,0.1,4.08,0.86c1.98,1.19,2.88,3.38,2.36,5.62
				c-0.03,0.13-0.06,0.26-0.09,0.41c2.31,0.95,4.6,1.89,6.9,2.83c0.27-0.28,0.52-0.56,0.78-0.82c1.57-1.6,3.37-2.86,5.37-3.87
				c2.05-1.03,4.21-1.73,6.49-2.05c2.69-0.38,5.35-0.26,7.94,0.65c2.28,0.8,4.21,2.1,5.56,4.14c1.1,1.67,1.58,3.53,1.48,5.53
				c-0.11,2.25-0.9,4.27-2.12,6.14c-1.68,2.57-3.93,4.52-6.6,6.02c-1.77,0.99-3.64,1.72-5.62,2.18c-0.49,0.11-0.98,0.19-1.47,0.29
				c-0.1,0.02-0.19,0.04-0.31,0.07v9.26c0.37,0.1,0.73,0.18,1.09,0.29c1.89,0.6,3.48,1.64,4.68,3.24c2.18,2.91,2.04,6.81-0.35,9.56
				c-1.49,1.72-3.38,2.72-5.6,3.11c-2.42,0.42-4.71,0.02-6.84-1.22c-0.94-0.55-1.75-1.25-2.43-2.1c-0.07-0.09-0.14-0.17-0.23-0.28
				c-2.74,1.48-5.47,2.95-8.22,4.44c0.1,0.29,0.19,0.56,0.27,0.83c1.65,5.25-0.4,10.87-5.05,13.84c-1.78,1.14-3.72,1.8-5.82,1.94
				c-5.12,0.36-9.68-2.28-11.96-6.55c-0.82-1.55-1.27-3.2-1.36-4.96c-0.1-2.03,0.28-3.96,1.15-5.79C82,70.26,82.02,70.2,82.07,70.1
				 M106.42,42.24c1.99,3.63,1.67,7.16-0.31,10.66c2.45,1.36,4.89,2.71,7.33,4.06c1.75-1.9,3.91-2.88,6.41-3.13
				c0.08-0.49,0.06-8.64-0.02-8.94c-4.05-0.12-7.68-1.25-10.36-4.56C108.45,40.97,107.45,41.6,106.42,42.24 M104.9,54.57
				c-2.69,2.98-6.02,4.57-10,4.86v3.98c3.56,0.56,6.41,2.28,8.54,5.2c2.78-1.5,5.54-2.99,8.32-4.49c-0.22-0.92-0.35-1.83-0.24-2.77
				c0.1-0.94,0.36-1.83,0.78-2.69C109.81,57.28,107.36,55.93,104.9,54.57 M97.36,37.23c3.04,0.18,5.67,1.19,7.8,3.37
				c1.11-0.69,2.19-1.37,3.28-2.05c-0.07-0.19-0.13-0.35-0.19-0.52c-0.42-1.14-0.61-2.32-0.56-3.54c0.07-1.73,0.54-3.35,1.33-4.88
				c0.15-0.3,0.31-0.59,0.48-0.91c-2.2-0.9-4.37-1.79-6.56-2.68c-0.71,0.87-1.55,1.55-2.52,2.08c-0.96,0.53-1.99,0.85-3.07,1.02
				V37.23z M83.55,67.82c2.46-2.83,5.53-4.33,9.24-4.51v-3.94c-3.13-0.39-5.76-1.68-7.71-4.2c-2.28,1.43-4.53,2.83-6.79,4.25
				c0.5,1.5,0.5,2.99,0.09,4.48C80.12,65.2,81.82,66.5,83.55,67.82 M84.85,33.93c0.6,2.7,0.21,5.28-0.89,7.81
				c0.61,0.26,1.19,0.51,1.8,0.77c1.18-1.47,2.6-2.65,4.25-3.54c1.65-0.89,3.4-1.45,5.24-1.66c0.09-0.56,0.06-7.95-0.03-8.22
				c-0.88-0.15-1.71-0.45-2.47-0.94C90.11,30.07,87.49,31.99,84.85,33.93 M77.32,57.6c2.27-1.42,4.49-2.81,6.74-4.21
				c-1.32-3.14-1-6.17,0.55-9.15c-0.57-0.24-1.1-0.46-1.63-0.69c-1.78,2.56-4.03,4.39-7.14,5.03c-0.2,2.43-0.39,4.86-0.59,7.31
				C76.06,56.29,76.73,56.86,77.32,57.6"/>
			<path class="st0" d="M206.79,116.78c1.79,0.31,0.92,1.34,0.6,2.67c-0.32,1.35-0.7,2.67-1.05,4.03c-0.13,0.5-1.1,2.9-0.78,3.34
				c0.17,0.23,2.1-1.46,2.39-1.64c1.07-0.64,2.2-1.22,3.42-1.55c0.9-0.24,2.77-0.92,3.59-0.07c0.81,0.83,0.04,2.31-0.37,3.12
				c-0.57,1.14-0.95,2.35-0.97,3.68c-0.03,1.5-0.38,2.57-2.13,2.57c-1.97,0-1.58-1.7-1.15-3.11c0.31-1,0.86-1.91,1.05-2.95
				c0.3-1.67-1.01-0.83-1.95-0.29c-1.83,1.03-3.6,2.77-4.73,4.6c-0.56,0.91-0.81,2.31-1.98,2.57c-1.45,0.32-1.92-0.6-1.68-1.82
				c0.55-2.8,1.53-5.56,2.13-8.35c0.3-1.41,0.76-2.76,1.08-4.14c0.15-0.65,0.34-1.63,0.83-2.09
				C205.23,117.2,206.82,116.57,206.79,116.78"/>
			<path class="st0" d="M180.37,136.17c-1.57,0.18-0.24-5.21-1.04-5.59c-0.31-0.15-1.95,0.34-2.33,0.43
				c-1.18,0.3-2.35,0.82-3.45,1.29c-0.98,0.42-1.18,1.11-1.57,2.05c-0.35,0.86-0.4,2.3-0.93,3.05c-0.65,0.91-1.94,0.79-1.88-0.41
				c0.05-0.98,1-2.28,0.8-3.22c-0.17-0.79-1.14-1.31-0.57-2.35c0.23-0.43,0.8-0.57,1.2-0.81c0.57-0.34,0.55-0.34,0.85-0.97
				c0.36-0.75,0.64-1.45,0.88-2.26c0.35-1.17,0.98-2.16,1.41-3.27c0.07-0.19,0.16-0.38,0.2-0.53c0.04-0.15-0.25-0.24-0.19-0.45
				c0.2-0.66,0.56-0.47,1.05-0.72c1.01-0.51,1.62-1.55,2.81-1.74c1.89-0.3,0.64,0.45,0.83,1.32c0.18,0.8,1.87,0.47,2.4,1.17
				c0.66,0.87,0.42,2.28,0.64,3.26c0.13,0.57,0.07,1.45,0.37,1.92c0.26,0.41,0.55,0.24,0.49,0.73c-0.01,0.07-0.38,0.48-0.43,0.66
				c-0.1,0.38,0.06,0.87,0.04,1.26c-0.03,0.72-0.2,1.46-0.23,2.19C181.7,134.11,181.73,136.16,180.37,136.17 M174.55,129.98
				c-0.02-0.11,3.9-0.7,4.17-0.92c0.98-0.81-0.04-3.24-1.04-3.82c-1.42-0.84-1.79,0.86-2.34,1.92
				C175.05,127.7,173.62,129.98,174.55,129.98"/>
			<path class="st0" d="M168.67,121.04c1.96-0.26,0.52,5.28,0.18,6.37c-0.43,1.37-0.64,2.79-0.82,4.22
				c-0.09,0.72-0.32,1.82-0.23,2.53c0.06,0.47,0.57,0.96,0.51,1.36c-0.13,0.83-2.35,2.14-3,1.38c-0.4-0.47,0.06-3.2-0.63-3
				c-0.09,0.03-0.9,1.26-1.07,1.43c-0.28,0.27-0.52,0.48-0.84,0.7c-1.15,0.8-2.8,1.26-4.11,0.63c-1.89-0.9-2.53-3.61-2.7-5.52
				c-0.11-1.28-1.51-8.25,0.98-7.69c0.73,0.17,1.62,0.77,1.74,1.47c0.24,1.39-0.15,3.11-0.13,4.54c0.02,1.39,1.12,6.28,3.53,5.12
				c0.89-0.43,1.84-1.88,2.26-2.76c0.43-0.9,0.77-2,1.03-2.99c0.42-1.61,0.68-3.25,1.13-4.83
				C166.84,122.77,167.2,121.15,168.67,121.04"/>
			<path class="st0" d="M190.1,134.81c-1.68,0-3.5,0.01-4.83-1.15c-1.07-0.93-1.7-2.31-1.83-3.72c-0.27-2.99,1.79-5.71,3.91-7.54
				c0.89-0.76,1.88-1.26,2.88-1.86c1.18-0.71,2.27-0.88,3.65-1.01c1.48-0.14,2.93-0.14,3.35,1.54c0.34,1.38,0.08,3.09-0.34,4.41
				c-0.35,1.1-0.66,2.28-1.86,2.62c-2.04,0.58-1.69-1.28-1.4-2.75c0.13-0.65,0.24-1.17,0.57-1.73c0.22-0.36,0.98-1.14,0.73-1.59
				c-0.61-1.11-3.64-0.19-4.47,0.18c-2.32,1.05-3.89,4.05-3.84,6.55c0.01,0.39-0.04,1.34,0.09,1.69c0.19,0.52,0.85,1.05,1.25,1.43
				c1.07,1.03,2.47,1.33,3.92,1.16c1.31-0.15,2.84-0.56,3.95-1.29c0.51-0.33,0.96-0.79,1.56-1.02c0.68-0.26,1.53-0.12,1.05,0.82
				c-0.27,0.53-1.25,0.89-1.75,1.19c-0.61,0.36-1.33,0.64-1.95,0.98C194.44,133.89,190.1,135.44,190.1,134.81 M191.35,120
				c0.04,0.13,0.45-0.02,0.42-0.13C191.63,119.92,191.49,119.96,191.35,120"/>
			<path class="st0" d="M170.03,102.52c2.08-0.08,4.22,0.45,6.29,1.26c0.17,0.07,0.33,0.36,0.34,0.56c0.05,0.62,0.04,1.24,0.02,1.87
				c-0.01,0.39-0.23,0.47-0.61,0.25c-0.46-0.27-0.89-0.6-1.36-0.83c-2.53-1.25-5.14-1.7-7.86-0.66c-1.92,0.73-3.18,2.05-3.77,4.03
				c-0.53,1.76-0.52,3.5,0.04,5.25c0.92,2.85,3.4,4.29,6.18,4.43c1.77,0.09,3.45-0.27,5.06-0.94c0.6-0.25,1.12-0.67,1.66-1.04
				c0.26-0.18,0.44-0.27,0.64,0.05c0.21,0.34,0.4,0.21,0.52-0.06c0.44-0.98,0.86-1.96,1.29-2.94c0.54-1.25,1.09-2.49,1.63-3.74
				c0.53-1.24,1.04-2.49,1.56-3.72c0.47-1.09,0.94-2.18,1.44-3.26c0.06-0.13,0.29-0.24,0.44-0.25c0.88-0.03,1.77-0.02,2.65-0.03
				c0.46,0,0.72,0.21,0.9,0.63c0.86,2.02,1.76,4.02,2.63,6.03c0.63,1.45,1.22,2.92,1.86,4.37c0.71,1.61,1.44,3.21,2.16,4.82
				c0.08,0.19,0.14,0.39,0.18,0.59c0.07,0.32-0.07,0.46-0.41,0.5c-0.59,0.08-1.19,0.18-1.76,0.34c-0.38,0.11-0.53-0.11-0.64-0.36
				c-0.37-0.85-0.72-1.72-1.08-2.58c-0.19-0.45-0.35-0.9-0.57-1.33c-0.07-0.15-0.26-0.29-0.42-0.33c-0.26-0.07-0.55-0.09-0.82-0.09
				c-2.32-0.01-4.64,0-6.96-0.01c-0.42,0-0.68,0.14-0.85,0.53c-0.51,1.23-1.04,2.44-1.55,3.67c-0.32,0.78-0.34,0.78-1.14,0.7
				c-0.43-0.04-0.86-0.01-1.3,0c-0.32,0.01-0.56-0.02-0.7-0.39c-0.04-0.12-0.39-0.24-0.53-0.18c-2.94,1.12-5.95,1.22-8.98,0.51
				c-0.74-0.17-1.43-0.58-2.16-0.84c-0.84-0.3-1.52-0.86-2.06-1.51c-0.63-0.76-1.16-1.63-1.59-2.51c-0.86-1.76-0.8-3.67-0.59-5.54
				c0.11-0.91,0.55-1.8,0.93-2.66c0.5-1.12,1.34-2.01,2.36-2.68c0.7-0.46,1.44-0.88,2.22-1.19
				C166.77,102.64,168.3,102.49,170.03,102.52 M187.86,113.46c0.29,0.01,0.5-0.18,0.42-0.56c-0.05-0.22-0.11-0.44-0.2-0.64
				c-0.5-1.15-1.02-2.3-1.52-3.46c-0.43-1-0.84-2.01-1.28-3.01c-0.06-0.14-0.26-0.33-0.36-0.3c-0.15,0.04-0.29,0.21-0.38,0.36
				c-0.08,0.14-0.07,0.34-0.14,0.5c-0.87,2.06-1.76,4.12-2.63,6.18c-0.32,0.74-0.18,0.93,0.62,0.93
				C184.16,113.46,185.92,113.46,187.86,113.46"/>
			<path class="st0" d="M85.42,112.51c0,2.34,0,4.67,0,7.01c0,0.71-0.01,0.7-0.72,0.66c-0.55-0.02-1.11-0.03-1.66,0.02
				c-0.39,0.04-0.5-0.13-0.5-0.46c0-0.71,0.01-1.42,0.01-2.13c0-3.9,0-7.79,0.01-11.69c0-1.19-0.05-1.23-1.28-1.2
				c-1.44,0.03-2.87,0.03-4.31-0.01c-0.67-0.02-1.15,0.12-1.03,0.94c0.04,0.29-0.11,0.61-0.17,0.91c-0.3-0.14-0.63-0.25-0.91-0.43
				c-2.03-1.3-4.23-1.91-6.66-1.69c-1.76,0.16-3.27,0.86-4.52,2.08c-0.66,0.65-1.07,1.49-1.34,2.37c-0.57,1.78-0.52,3.57,0.02,5.35
				c0.36,1.18,1.06,2.16,1.97,2.93c1.13,0.96,2.53,1.39,4.01,1.48c1.36,0.08,2.71-0.04,4-0.45c1.09-0.35,2.16-0.8,3.07-1.56
				c0.1-0.08,0.31-0.17,0.39-0.12c0.1,0.06,0.16,0.26,0.17,0.4c0.01,0.6,0.03,1.21-0.04,1.81c-0.03,0.21-0.28,0.49-0.49,0.58
				c-3.17,1.29-6.45,1.68-9.81,0.91c-1.63-0.38-3.13-1.09-4.32-2.31c-1.45-1.5-2.21-3.32-2.35-5.38c-0.12-1.65,0.01-3.29,0.71-4.83
				c0.66-1.44,1.65-2.61,2.99-3.49c1.22-0.8,2.55-1.24,3.98-1.5c1.91-0.35,3.79-0.18,5.68,0.06c0.66,0.08,1.3,0.35,1.93,0.58
				c0.39,0.14,0.64,0.14,0.82-0.3c0.06-0.15,0.33-0.29,0.51-0.29c5.44-0.01,10.87-0.01,16.31,0c0.21,0,0.42-0.01,0.62,0.01
				c0.33,0.03,0.49,0.21,0.46,0.56c-0.02,0.29,0.02,0.58,0.01,0.88c0,0.39-0.17,0.59-0.61,0.58c-2.06-0.04-4.12-0.05-6.18-0.06
				c-0.68,0-0.82,0.17-0.82,0.84c0,2.32,0,4.64,0,6.96C85.4,112.51,85.41,112.51,85.42,112.51"/>
			<path class="st0" d="M134.61,105.51c-0.04,0.23-0.1,0.45-0.1,0.68c0.01,3.81,0.04,7.62,0.06,11.43c0,0.73,0.01,1.45,0.03,2.18
				c0.01,0.31-0.05,0.47-0.44,0.43c-0.51-0.06-1.04-0.03-1.55-0.01c-0.58,0.02-0.72-0.07-0.72-0.66c-0.01-1.44-0.01-2.87-0.01-4.31
				c0-2.68-0.01-5.36-0.01-8.05c0-1.19-0.02-2.39-0.01-3.58c0-0.75,0.15-0.87,0.88-0.87c0.92,0.01,1.84-0.05,2.75,0.03
				c0.32,0.03,0.73,0.28,0.91,0.56c1.27,1.89,2.49,3.81,3.73,5.72c1.04,1.59,2.1,3.15,3.13,4.74c0.47,0.72,0.9,1.47,1.37,2.2
				c0.09,0.14,0.29,0.2,0.43,0.3c0.07-0.18,0.21-0.36,0.21-0.54c-0.01-3.76-0.03-7.51-0.06-11.27c0-0.35-0.01-0.69-0.03-1.04
				c-0.03-0.5,0.12-0.67,0.61-0.68c0.47-0.01,0.93,0,1.4,0c0.56,0,0.7,0.14,0.7,0.71c0.01,2.1,0.01,4.19,0.01,6.29
				c0,3.22-0.01,6.44-0.01,9.66c0,0.77-0.02,0.78-0.78,0.78c-0.64,0-1.28,0.02-1.92,0.06c-0.68,0.05-0.93-0.46-1.22-0.89
				c-1.29-1.94-2.57-3.9-3.85-5.85c-0.82-1.26-1.64-2.52-2.46-3.78c-0.86-1.31-1.72-2.62-2.59-3.92c-0.08-0.12-0.2-0.23-0.3-0.34
				C134.72,105.5,134.66,105.51,134.61,105.51"/>
			<path class="st0" d="M110.23,111.21c-0.1-1.63,0.36-3.15,1.15-4.5c0.97-1.66,2.4-2.86,4.3-3.52c1.45-0.5,2.92-0.71,4.43-0.72
				c1.05-0.01,2.14-0.01,3.15,0.26c2.52,0.65,4.63,1.91,5.85,4.38c1.21,2.44,1.26,4.98,0.57,7.48c-0.7,2.54-2.41,4.33-4.94,5.26
				c-2.72,0.99-5.49,0.97-8.27,0.31c-1.6-0.37-2.96-1.21-4.06-2.38c-0.92-0.98-1.61-2.16-1.85-3.53c-0.18-1-0.3-2.01-0.45-3.01
				C110.14,111.22,110.18,111.21,110.23,111.21 M113.24,111.8c-0.04,0.01-0.09,0.02-0.13,0.02c0.22,1.03,0.3,2.11,0.69,3.06
				c0.82,2.03,2.45,3.23,4.59,3.61c1.02,0.18,2.1,0.16,3.15,0.08c1.84-0.16,3.26-1.14,4.37-2.57c0.26-0.33,0.48-0.73,0.6-1.14
				c0.22-0.79,0.4-1.6,0.5-2.42c0.24-2.03-0.09-3.96-1.31-5.66c-0.59-0.83-1.38-1.49-2.33-1.84c-1.65-0.62-3.36-0.78-5.1-0.42
				c-1.82,0.38-3.27,1.35-4.15,2.98C113.42,108.81,113.1,110.28,113.24,111.8"/>
			<path class="st0" d="M111.08,120.18c-0.32,0.04-0.5,0.08-0.68,0.08c-0.81,0-1.63-0.06-2.44-0.01c-0.64,0.04-0.99-0.38-1.36-0.72
				c-0.98-0.9-1.9-1.87-2.85-2.8c-1.11-1.09-2.22-2.17-3.35-3.24c-0.14-0.13-0.36-0.22-0.55-0.23c-0.83-0.02-1.66-0.01-2.48,0
				c-0.59,0.01-0.68,0.12-0.67,0.72c0.02,1.87,0.03,3.74,0.06,5.61c0.01,0.47-0.06,0.7-0.63,0.63c-0.58-0.08-1.18-0.05-1.76,0.01
				c-0.44,0.05-0.52-0.13-0.52-0.49c0.01-0.76,0.01-1.52,0.01-2.28c0-4.03-0.01-8.07-0.01-12.1c0-0.71,0.01-1.42,0.01-2.13
				c0-0.34,0.17-0.51,0.51-0.51c1.35,0.01,2.69-0.02,4.04,0.03c1.66,0.06,3.33,0.08,4.97,0.31c1.42,0.2,2.72,0.85,3.65,2
				c1.36,1.7,0.89,4.54-0.59,5.8c-0.85,0.73-1.76,1.26-2.8,1.61c-0.34,0.11-0.39,0.29-0.11,0.56c1.79,1.7,3.58,3.41,5.37,5.1
				c0.59,0.56,1.21,1.08,1.81,1.62C110.8,119.85,110.88,119.95,111.08,120.18 M96.69,108.32c0,0,0.01,0,0.01,0
				c0,0.81,0.02,1.63-0.01,2.44c-0.02,0.44,0.11,0.67,0.57,0.65c1.52-0.06,3.04-0.05,4.55-0.21c1.48-0.16,2.49-1.03,2.89-2.5
				c0.53-1.95-0.46-3.39-2.27-3.7c-1.67-0.29-3.4-0.25-5.11-0.33c-0.4-0.02-0.64,0.2-0.63,0.64
				C96.69,106.32,96.69,107.32,96.69,108.32"/>
			<path class="st0" d="M14.69,111.53c0-2.72,0-5.44,0-8.15c0-0.4,0.14-0.62,0.57-0.62c4.17,0.01,8.34,0.01,12.51,0.01
				c0.14,0,0.28,0,0.41-0.01c0.41-0.04,0.63,0.15,0.62,0.56c-0.06,1.49,0.23,1.45-1.35,1.43c-3.06-0.04-6.13-0.01-9.19-0.01
				c-0.53,0-0.67,0.15-0.67,0.69c0,1.16,0.01,2.32,0.02,3.48c0.01,0.65,0.2,0.8,0.86,0.8c2.86-0.02,5.71-0.04,8.57-0.04
				c0.97,0,0.97,0.03,0.95,0.99c-0.03,1-0.03,0.99-1.02,0.99c-2.89,0-5.78,0-8.67,0c-0.56,0-0.7,0.15-0.7,0.71
				c0,1.8-0.02,3.6-0.01,5.4c0,0.15,0.18,0.38,0.32,0.43c0.25,0.08,0.54,0.06,0.82,0.06c3.15,0,6.3,0.01,9.45-0.01
				c0.48,0,0.6,0.19,0.61,0.61c0.02,1.37,0.02,1.38-1.29,1.38c-4.08,0-8.17-0.01-12.25,0c-0.41,0-0.54-0.13-0.54-0.54
				c0.01-2.72,0.01-5.44,0.01-8.15H14.69z"/>
			<path class="st0" d="M44.37,111.49c0-2.72,0-5.44,0-8.15c0-0.41,0.13-0.59,0.57-0.59c4.35,0.01,8.69,0.01,13.04,0.01
				c0.37,0,0.5,0.15,0.5,0.49c0,0.28-0.01,0.55-0.01,0.83c0,0.62-0.1,0.71-0.73,0.71c-3.27-0.01-6.54-0.03-9.81-0.04
				c-0.51,0-0.68,0.17-0.67,0.63c0.02,1.21,0.06,2.42,0.01,3.63c-0.02,0.5,0.17,0.67,0.6,0.69c0.55,0.02,1.1,0.01,1.66,0.01
				c2.32,0,4.64,0,6.96,0c1.13,0,1.13,0,1.18,1.14c0.03,0.78-0.04,0.83-0.79,0.83c-2.94-0.01-5.89-0.02-8.83-0.01
				c-0.74,0-0.78,0.09-0.78,0.83c0.01,1.76-0.02,3.53,0,5.29c0,0.14,0.24,0.4,0.38,0.41c0.7,0.06,1.42,0.07,2.12,0.07
				c2.68,0,5.37,0,8.05-0.03c0.49,0,0.69,0.14,0.66,0.65c-0.06,1.46,0.32,1.34-1.36,1.34c-3.95,0-7.89,0-11.84,0
				c-0.88,0-0.86,0.01-0.86-0.89c0.01-2.61,0-5.23,0-7.84H44.37z"/>
			<path class="st0" d="M153.01,111.47c0-2.11-0.01-4.22,0-6.33c0-0.46-0.15-0.68-0.63-0.66c-0.55,0.03-1.11,0.03-1.66,0.05
				c-0.44,0.02-0.63-0.17-0.62-0.62c0.02-1.05-0.19-1.16,1.16-1.14c2.25,0.04,4.5,0,6.75,0c0.75,0,0.8,0.08,0.79,1.08
				c-0.01,0.55-0.13,0.66-0.8,0.66c-0.5,0-1,0-1.51-0.02c-0.46-0.02-0.67,0.16-0.67,0.63c0.01,3.91,0.02,7.82,0.03,11.73
				c0,0.31-0.01,0.62-0.03,0.93c-0.03,0.53,0.13,0.72,0.68,0.74c0.5,0.02,1,0.01,1.51,0.01c0.68,0,0.76,0.07,0.76,0.73
				c0,0.09,0,0.17,0,0.26c0.03,0.65-0.03,0.69-0.7,0.69c-2.41,0.01-4.81,0.02-7.22,0.04c-0.71,0.01-0.75-0.02-0.76-0.75
				c0-0.14,0.01-0.28-0.01-0.42c-0.04-0.39,0.16-0.54,0.52-0.54c0.5,0,1,0,1.51,0.02c0.76,0.02,0.87-0.07,0.87-0.85
				c0-2.08,0-4.15,0-6.23H153.01z"/>
			<path class="st0" d="M30.53,111.57c0-2.65,0-5.3,0-7.94c0-0.79,0.06-0.86,0.84-0.86c0.5,0,1-0.02,1.5-0.02
				c0.5,0,0.61,0.16,0.59,0.67c-0.03,0.71-0.03,1.42-0.03,2.13c0,4.03,0,8.06,0,12.1c0,0.41,0.14,0.67,0.59,0.67
				c2.32-0.01,4.64-0.02,6.95-0.04c0.69,0,1.38,0.01,2.07-0.01c0.39-0.01,0.52,0.19,0.52,0.54c0,1.66,0.21,1.43-1.32,1.43
				c-3.77,0.01-7.54-0.01-11.31-0.01c-0.29,0-0.39-0.1-0.39-0.4c0.01-2.75,0-5.5,0-8.25H30.53z"/>
			<path class="st0" d="M170.03,102.52c2.08-0.08,4.22,0.45,6.29,1.26c0.17,0.07,0.33,0.36,0.34,0.56c0.05,0.62,0.04,1.24,0.02,1.87
				c-0.01,0.39-0.23,0.47-0.61,0.25c-0.46-0.27-0.89-0.6-1.36-0.83c-2.53-1.25-5.14-1.7-7.86-0.66c-1.92,0.73-3.18,2.05-3.77,4.03
				c-0.53,1.76-0.52,3.5,0.04,5.25c0.92,2.85,3.4,4.29,6.18,4.43c1.77,0.09,3.45-0.27,5.06-0.94c0.6-0.25,1.12-0.67,1.66-1.04
				c0.26-0.18,0.44-0.27,0.64,0.05c0.21,0.34,0.4,0.21,0.52-0.06c0.44-0.98,0.86-1.96,1.29-2.94c0.54-1.25,1.09-2.49,1.63-3.74
				c0.53-1.24,1.04-2.49,1.56-3.72c0.47-1.09,0.94-2.18,1.44-3.26c0.06-0.13,0.29-0.24,0.44-0.25c0.88-0.03,1.77-0.02,2.65-0.03
				c0.46,0,0.72,0.21,0.9,0.63c0.86,2.02,1.76,4.02,2.63,6.03c0.63,1.45,1.22,2.92,1.86,4.37c0.71,1.61,1.44,3.21,2.16,4.82
				c0.08,0.19,0.14,0.39,0.18,0.59c0.07,0.32-0.07,0.46-0.41,0.5c-0.59,0.08-1.19,0.18-1.76,0.34c-0.38,0.11-0.53-0.11-0.64-0.36
				c-0.37-0.85-0.72-1.72-1.08-2.58c-0.19-0.45-0.35-0.9-0.57-1.33c-0.07-0.15-0.26-0.29-0.42-0.33c-0.26-0.07-0.55-0.09-0.82-0.09
				c-2.32-0.01-4.64,0-6.96-0.01c-0.42,0-0.68,0.14-0.85,0.53c-0.51,1.23-1.04,2.44-1.55,3.67c-0.32,0.78-0.34,0.78-1.14,0.7
				c-0.43-0.04-0.86-0.01-1.3,0c-0.32,0.01-0.56-0.02-0.7-0.39c-0.04-0.12-0.39-0.24-0.53-0.18c-2.94,1.12-5.95,1.22-8.98,0.51
				c-0.74-0.17-1.43-0.58-2.16-0.84c-0.84-0.3-1.52-0.86-2.06-1.51c-0.63-0.76-1.16-1.63-1.59-2.51c-0.86-1.76-0.8-3.67-0.59-5.54
				c0.11-0.91,0.55-1.8,0.93-2.66c0.5-1.12,1.34-2.01,2.36-2.68c0.7-0.46,1.44-0.88,2.22-1.19
				C166.77,102.64,168.3,102.49,170.03,102.52 M187.86,113.46c0.29,0.01,0.5-0.18,0.42-0.56c-0.05-0.22-0.11-0.44-0.2-0.64
				c-0.5-1.15-1.02-2.3-1.52-3.46c-0.43-1-0.84-2.01-1.28-3.01c-0.06-0.14-0.26-0.33-0.36-0.3c-0.15,0.04-0.29,0.21-0.38,0.36
				c-0.08,0.14-0.07,0.34-0.14,0.5c-0.87,2.06-1.76,4.12-2.63,6.18c-0.32,0.74-0.18,0.93,0.62,0.93
				C184.16,113.46,185.92,113.46,187.86,113.46"/>
			<path class="st0" d="M85.42,112.51c0,2.34,0,4.67,0,7.01c0,0.71-0.01,0.7-0.72,0.66c-0.55-0.02-1.11-0.03-1.66,0.02
				c-0.39,0.04-0.5-0.13-0.5-0.46c0-0.71,0.01-1.42,0.01-2.13c0-3.9,0-7.79,0.01-11.69c0-1.19-0.05-1.23-1.28-1.2
				c-1.44,0.03-2.87,0.03-4.31-0.01c-0.67-0.02-1.15,0.12-1.03,0.94c0.04,0.29-0.11,0.61-0.17,0.91c-0.3-0.14-0.63-0.25-0.91-0.43
				c-2.03-1.3-4.23-1.91-6.66-1.69c-1.76,0.16-3.27,0.86-4.52,2.08c-0.66,0.65-1.07,1.49-1.34,2.37c-0.57,1.78-0.52,3.57,0.02,5.35
				c0.36,1.18,1.06,2.16,1.97,2.93c1.13,0.96,2.53,1.39,4.01,1.48c1.36,0.08,2.71-0.04,4-0.45c1.09-0.35,2.16-0.8,3.07-1.56
				c0.1-0.08,0.31-0.17,0.39-0.12c0.1,0.06,0.16,0.26,0.17,0.4c0.01,0.6,0.03,1.21-0.04,1.81c-0.03,0.21-0.28,0.49-0.49,0.58
				c-3.17,1.29-6.45,1.68-9.81,0.91c-1.63-0.38-3.13-1.09-4.32-2.31c-1.45-1.5-2.21-3.32-2.35-5.38c-0.12-1.65,0.01-3.29,0.71-4.83
				c0.66-1.44,1.65-2.61,2.99-3.49c1.22-0.8,2.55-1.24,3.98-1.5c1.91-0.35,3.79-0.18,5.68,0.06c0.66,0.08,1.3,0.35,1.93,0.58
				c0.39,0.14,0.64,0.14,0.82-0.3c0.06-0.15,0.33-0.29,0.51-0.29c5.44-0.01,10.87-0.01,16.31,0c0.21,0,0.42-0.01,0.62,0.01
				c0.33,0.03,0.49,0.21,0.46,0.56c-0.02,0.29,0.02,0.58,0.01,0.88c0,0.39-0.17,0.59-0.61,0.58c-2.06-0.04-4.12-0.05-6.18-0.06
				c-0.68,0-0.82,0.17-0.82,0.84c0,2.32,0,4.64,0,6.96C85.4,112.51,85.41,112.51,85.42,112.51"/>
			<path class="st0" d="M134.61,105.51c-0.04,0.23-0.1,0.45-0.1,0.68c0.01,3.81,0.04,7.62,0.06,11.43c0,0.73,0.01,1.45,0.03,2.18
				c0.01,0.31-0.05,0.47-0.44,0.43c-0.51-0.06-1.04-0.03-1.55-0.01c-0.58,0.02-0.72-0.07-0.72-0.66c-0.01-1.44-0.01-2.87-0.01-4.31
				c0-2.68-0.01-5.36-0.01-8.05c0-1.19-0.02-2.39-0.01-3.58c0-0.75,0.15-0.87,0.88-0.87c0.92,0.01,1.84-0.05,2.75,0.03
				c0.32,0.03,0.73,0.28,0.91,0.56c1.27,1.89,2.49,3.81,3.73,5.72c1.04,1.59,2.1,3.15,3.13,4.74c0.47,0.72,0.9,1.47,1.37,2.2
				c0.09,0.14,0.29,0.2,0.43,0.3c0.07-0.18,0.21-0.36,0.21-0.54c-0.01-3.76-0.03-7.51-0.06-11.27c0-0.35-0.01-0.69-0.03-1.04
				c-0.03-0.5,0.12-0.67,0.61-0.68c0.47-0.01,0.93,0,1.4,0c0.56,0,0.7,0.14,0.7,0.71c0.01,2.1,0.01,4.19,0.01,6.29
				c0,3.22-0.01,6.44-0.01,9.66c0,0.77-0.02,0.78-0.78,0.78c-0.64,0-1.28,0.02-1.92,0.06c-0.68,0.05-0.93-0.46-1.22-0.89
				c-1.29-1.94-2.57-3.9-3.85-5.85c-0.82-1.26-1.64-2.52-2.46-3.78c-0.86-1.31-1.72-2.62-2.59-3.92c-0.08-0.12-0.2-0.23-0.3-0.34
				C134.72,105.5,134.66,105.51,134.61,105.51"/>
			<path class="st0" d="M110.23,111.21c-0.1-1.63,0.36-3.15,1.15-4.5c0.97-1.66,2.4-2.86,4.3-3.52c1.45-0.5,2.92-0.71,4.43-0.72
				c1.05-0.01,2.14-0.01,3.15,0.26c2.52,0.65,4.63,1.91,5.85,4.38c1.21,2.44,1.26,4.98,0.57,7.48c-0.7,2.54-2.41,4.33-4.94,5.26
				c-2.72,0.99-5.49,0.97-8.27,0.31c-1.6-0.37-2.96-1.21-4.06-2.38c-0.92-0.98-1.61-2.16-1.85-3.53c-0.18-1-0.3-2.01-0.45-3.01
				C110.14,111.22,110.18,111.21,110.23,111.21 M113.24,111.8c-0.04,0.01-0.09,0.02-0.13,0.02c0.22,1.03,0.3,2.11,0.69,3.06
				c0.82,2.03,2.45,3.23,4.59,3.61c1.02,0.18,2.1,0.16,3.15,0.08c1.84-0.16,3.26-1.14,4.37-2.57c0.26-0.33,0.48-0.73,0.6-1.14
				c0.22-0.79,0.4-1.6,0.5-2.42c0.24-2.03-0.09-3.96-1.31-5.66c-0.59-0.83-1.38-1.49-2.33-1.84c-1.65-0.62-3.36-0.78-5.1-0.42
				c-1.82,0.38-3.27,1.35-4.15,2.98C113.42,108.81,113.1,110.28,113.24,111.8"/>
			<path class="st0" d="M111.08,120.18c-0.32,0.04-0.5,0.08-0.68,0.08c-0.81,0-1.63-0.06-2.44-0.01c-0.64,0.04-0.99-0.38-1.36-0.72
				c-0.98-0.9-1.9-1.87-2.85-2.8c-1.11-1.09-2.22-2.17-3.35-3.24c-0.14-0.13-0.36-0.22-0.55-0.23c-0.83-0.02-1.66-0.01-2.48,0
				c-0.59,0.01-0.68,0.12-0.67,0.72c0.02,1.87,0.03,3.74,0.06,5.61c0.01,0.47-0.06,0.7-0.63,0.63c-0.58-0.08-1.18-0.05-1.76,0.01
				c-0.44,0.05-0.52-0.13-0.52-0.49c0.01-0.76,0.01-1.52,0.01-2.28c0-4.03-0.01-8.07-0.01-12.1c0-0.71,0.01-1.42,0.01-2.13
				c0-0.34,0.17-0.51,0.51-0.51c1.35,0.01,2.69-0.02,4.04,0.03c1.66,0.06,3.33,0.08,4.97,0.31c1.42,0.2,2.72,0.85,3.65,2
				c1.36,1.7,0.89,4.54-0.59,5.8c-0.85,0.73-1.76,1.26-2.8,1.61c-0.34,0.11-0.39,0.29-0.11,0.56c1.79,1.7,3.58,3.41,5.37,5.1
				c0.59,0.56,1.21,1.08,1.81,1.62C110.8,119.85,110.88,119.95,111.08,120.18 M96.69,108.32c0,0,0.01,0,0.01,0
				c0,0.81,0.02,1.63-0.01,2.44c-0.02,0.44,0.11,0.67,0.57,0.65c1.52-0.06,3.04-0.05,4.55-0.21c1.48-0.16,2.49-1.03,2.89-2.5
				c0.53-1.95-0.46-3.39-2.27-3.7c-1.67-0.29-3.4-0.25-5.11-0.33c-0.4-0.02-0.64,0.2-0.63,0.64
				C96.69,106.32,96.69,107.32,96.69,108.32"/>
			<path class="st0" d="M14.69,111.53c0-2.72,0-5.44,0-8.15c0-0.4,0.14-0.62,0.57-0.62c4.17,0.01,8.34,0.01,12.51,0.01
				c0.14,0,0.28,0,0.41-0.01c0.41-0.04,0.63,0.15,0.62,0.56c-0.06,1.49,0.23,1.45-1.35,1.43c-3.06-0.04-6.13-0.01-9.19-0.01
				c-0.53,0-0.67,0.15-0.67,0.69c0,1.16,0.01,2.32,0.02,3.48c0.01,0.65,0.2,0.8,0.86,0.8c2.86-0.02,5.71-0.04,8.57-0.04
				c0.97,0,0.97,0.03,0.95,0.99c-0.03,1-0.03,0.99-1.02,0.99c-2.89,0-5.78,0-8.67,0c-0.56,0-0.7,0.15-0.7,0.71
				c0,1.8-0.02,3.6-0.01,5.4c0,0.15,0.18,0.38,0.32,0.43c0.25,0.08,0.54,0.06,0.82,0.06c3.15,0,6.3,0.01,9.45-0.01
				c0.48,0,0.6,0.19,0.61,0.61c0.02,1.37,0.02,1.38-1.29,1.38c-4.08,0-8.17-0.01-12.25,0c-0.41,0-0.54-0.13-0.54-0.54
				c0.01-2.72,0.01-5.44,0.01-8.15H14.69z"/>
			<path class="st0" d="M44.37,111.49c0-2.72,0-5.44,0-8.15c0-0.41,0.13-0.59,0.57-0.59c4.35,0.01,8.69,0.01,13.04,0.01
				c0.37,0,0.5,0.15,0.5,0.49c0,0.28-0.01,0.55-0.01,0.83c0,0.62-0.1,0.71-0.73,0.71c-3.27-0.01-6.54-0.03-9.81-0.04
				c-0.51,0-0.68,0.17-0.67,0.63c0.02,1.21,0.06,2.42,0.01,3.63c-0.02,0.5,0.17,0.67,0.6,0.69c0.55,0.02,1.1,0.01,1.66,0.01
				c2.32,0,4.64,0,6.96,0c1.13,0,1.13,0,1.18,1.14c0.03,0.78-0.04,0.83-0.79,0.83c-2.94-0.01-5.89-0.02-8.83-0.01
				c-0.74,0-0.78,0.09-0.78,0.83c0.01,1.76-0.02,3.53,0,5.29c0,0.14,0.24,0.4,0.38,0.41c0.7,0.06,1.42,0.07,2.12,0.07
				c2.68,0,5.37,0,8.05-0.03c0.49,0,0.69,0.14,0.66,0.65c-0.06,1.46,0.32,1.34-1.36,1.34c-3.95,0-7.89,0-11.84,0
				c-0.88,0-0.86,0.01-0.86-0.89c0.01-2.61,0-5.23,0-7.84H44.37z"/>
			<path class="st0" d="M153.01,111.47c0-2.11-0.01-4.22,0-6.33c0-0.46-0.15-0.68-0.63-0.66c-0.55,0.03-1.11,0.03-1.66,0.05
				c-0.44,0.02-0.63-0.17-0.62-0.62c0.02-1.05-0.19-1.16,1.16-1.14c2.25,0.04,4.5,0,6.75,0c0.75,0,0.8,0.08,0.79,1.08
				c-0.01,0.55-0.13,0.66-0.8,0.66c-0.5,0-1,0-1.51-0.02c-0.46-0.02-0.67,0.16-0.67,0.63c0.01,3.91,0.02,7.82,0.03,11.73
				c0,0.31-0.01,0.62-0.03,0.93c-0.03,0.53,0.13,0.72,0.68,0.74c0.5,0.02,1,0.01,1.51,0.01c0.68,0,0.76,0.07,0.76,0.73
				c0,0.09,0,0.17,0,0.26c0.03,0.65-0.03,0.69-0.7,0.69c-2.41,0.01-4.81,0.02-7.22,0.04c-0.71,0.01-0.75-0.02-0.76-0.75
				c0-0.14,0.01-0.28-0.01-0.42c-0.04-0.39,0.16-0.54,0.52-0.54c0.5,0,1,0,1.51,0.02c0.76,0.02,0.87-0.07,0.87-0.85
				c0-2.08,0-4.15,0-6.23H153.01z"/>
			<path class="st0" d="M30.53,111.57c0-2.65,0-5.3,0-7.94c0-0.79,0.06-0.86,0.84-0.86c0.5,0,1-0.02,1.5-0.02
				c0.5,0,0.61,0.16,0.59,0.67c-0.03,0.71-0.03,1.42-0.03,2.13c0,4.03,0,8.06,0,12.1c0,0.41,0.14,0.67,0.59,0.67
				c2.32-0.01,4.64-0.02,6.95-0.04c0.69,0,1.38,0.01,2.07-0.01c0.39-0.01,0.52,0.19,0.52,0.54c0,1.66,0.21,1.43-1.32,1.43
				c-3.77,0.01-7.54-0.01-11.31-0.01c-0.29,0-0.39-0.1-0.39-0.4c0.01-2.75,0-5.5,0-8.25H30.53z"/>
			<path class="st0" d="M168.58,17.94c-1.55-4.34-8.13-6.02-15.04-4.01c-0.29-0.33-0.59-0.66-0.89-0.98
				c-1.93-2.03-4.06-3.84-6.38-5.41c-3.18-2.16-6.6-3.82-10.25-5.04c-2.61-0.87-5.27-1.5-7.99-1.91c-1.81-0.28-3.63-0.47-5.45-0.54
				c-1.26-0.05-2.53-0.02-3.8-0.04c-1.82-0.03-3.63,0.1-5.44,0.28c-2.49,0.24-4.97,0.63-7.42,1.13c-3.86,0.79-7.63,1.86-11.35,3.15
				c-3.83,1.33-7.54,2.92-11.06,4.93c-4.05,2.3-7.78,5.04-11.15,8.25c-3.32,3.16-6.2,6.68-8.63,10.57
				c-2.77,4.44-4.86,9.18-6.27,14.21c-1.19,4.23-1.85,8.54-2,12.92c-0.08,2.42-0.02,4.83,0.22,7.24c0.22,2.17,0.57,4.32,1.02,6.45
				c0.67,3.12,1.69,6.1,3.17,8.93c2.02,3.85,4.69,7.19,7.93,10.08c3.48,3.1,7.39,5.53,11.65,7.41c2.65,1.17,5.38,2.11,8.19,2.83
				c2.38,0.61,4.79,1.06,7.23,1.37c1.75,0.22,3.51,0.36,5.28,0.43c1.77,0.07,3.53,0.05,5.3-0.03c1.84-0.09,3.67-0.26,5.5-0.51
				c2.46-0.34,4.89-0.82,7.29-1.46c3.15-0.83,6.22-1.9,9.21-3.22c4.07-1.79,7.93-3.95,11.58-6.5c4.48-3.13,8.51-6.76,12.05-10.92
				c2.66-3.12,4.97-6.47,6.93-10.08c1.77-3.26,3.19-6.66,4.26-10.21c0.76-2.52,1.32-5.09,1.66-7.7c0.23-1.73,0.36-3.46,0.41-5.2
				c0.06-2.32-0.06-4.63-0.35-6.93c-0.35-2.81-0.97-5.56-1.84-8.26c1.82-1.09,3.41-2.37,4.59-3.83
				C168.73,22.84,169.39,20.21,168.58,17.94 M158.5,50c-0.4,2.8-1.05,5.53-1.94,8.21c-1.37,4.13-3.26,8.02-5.62,11.68
				c-3.9,6.04-8.81,11.12-14.59,15.36c-2.72,2-5.59,3.75-8.6,5.29c-2.08,1.06-4.2,2.01-6.38,2.82c-3.97,1.47-8.05,2.5-12.25,3.08
				c-2.25,0.31-4.51,0.48-6.77,0.55c-1.54,0.05-3.08-0.01-4.62-0.1c-2.06-0.12-4.11-0.36-6.15-0.71c-2.41-0.41-4.78-0.99-7.11-1.74
				c-2.65-0.85-5.21-1.92-7.67-3.24c-3.39-1.81-6.49-4.03-9.21-6.75c-2.39-2.39-4.39-5.07-5.95-8.08c-0.97-1.87-1.74-3.83-2.31-5.86
				c-0.72-2.57-1.22-5.19-1.51-7.85c-0.19-1.73-0.31-3.47-0.33-5.21c-0.02-1.9,0.08-3.8,0.27-5.7c0.26-2.58,0.72-5.13,1.37-7.64
				c0.87-3.34,2.06-6.57,3.58-9.67c1.26-2.56,2.72-4.99,4.39-7.3c2-2.77,4.26-5.31,6.78-7.63c2.14-1.98,4.44-3.75,6.87-5.35
				c2.25-1.47,4.59-2.77,7.02-3.9c2.95-1.37,5.99-2.48,9.08-3.45c4.45-1.4,8.98-2.44,13.63-2.99c2.27-0.27,4.54-0.41,6.82-0.42
				c2.28-0.01,4.55,0.13,6.82,0.42c2.7,0.35,5.35,0.92,7.95,1.75c3.38,1.08,6.57,2.58,9.54,4.53c2.57,1.69,4.88,3.67,6.95,5.94
				c-5.09,2.99-7.94,7.59-6.6,11.35c0.81,2.28,2.98,3.89,6.12,4.55c1.01,0.21,2.08,0.32,3.19,0.32c1.88,0,3.87-0.32,5.85-0.91
				c0.94,3.09,1.52,6.25,1.73,9.48C159.04,43.92,158.93,46.97,158.5,50 M160.63,23.68c-0.01,0.01-0.02,0.02-0.02,0.03
				c-0.01,0.01-0.02,0.02-0.03,0.02c-0.05,0.01-0.1,0.02-0.15,0.02c-3.07,0-6.14,0-9.21,0c-0.03,0-0.07-0.02-0.13-0.04v-2.94
				c0.28-0.08,8.91-0.1,9.5-0.03C160.67,21.01,160.7,22.93,160.63,23.68"/>
		</g>
	</g>
</g>
</svg>
